<svg t="1673970578880" class="icon" viewBox="0 0 1071 1024" version="1.1" xmlns="http://www.w3.org/2000/svg" p-id="59276" width="200" height="200"><path d="M342.3744 333.75744h104.66304c29.90592 0 52.33152-22.4256 52.33152-52.33152V176.75776c0-29.90592-22.4256-52.33152-52.33152-52.33152H342.3744c-29.9008 0-52.33152 22.4256-52.33152 52.33152v104.66304c0 29.90592 24.91904 52.33664 52.33152 52.33664z m-17.44384-156.99968c0-9.96864 7.4752-17.44384 17.44384-17.44384h104.66304c9.96864 0 17.44384 7.4752 17.44384 17.44384v104.66304c0 9.96864-7.4752 17.44384-17.44384 17.44384H342.3744c-9.96864 0-17.44384-7.4752-17.44384-17.44384V176.75776z m2.49344 271.63136h24.92416l-44.86144-74.76224-44.85632 74.76224h27.41248c12.46208 122.112 117.12512 219.29472 241.73056 219.29472v-34.88256c-102.17984-2.49344-191.88736-82.24256-204.34944-184.41216z m206.83776-271.63136v34.88768c107.15648 0 194.3808 82.24256 206.83776 184.41216h-24.91904l44.85632 74.76224 44.86144-74.76224h-27.41248c-12.4672-122.112-117.13024-219.29984-244.224-219.29984z m204.34944 331.4432h-124.60032c-22.43072 0-42.36288 19.93216-42.36288 42.35776v124.60544c0 22.43072 19.93728 42.36288 42.36288 42.36288h124.60032c22.4256 0 42.36288-19.93728 42.36288-42.36288v-124.60544c-2.49344-22.43072-19.93728-42.35776-42.36288-42.35776z" fill="#08cd9e" p-id="59277"></path><path d="M920.52992 24.74496H147.99872c-67.28704 0-122.112 54.82496-122.112 122.112v548.2496c0 67.28704 54.82496 122.11712 122.112 122.11712h772.5312c67.28704 0 122.112-54.83008 122.112-122.11712V146.85184c2.48832-67.28192-52.33664-122.10688-122.112-122.10688z m71.18336 680.58624c0 31.02208-25.85088 54.28736-54.28736 54.28736H136.07424c-31.01696 0-54.28224-25.85088-54.28224-54.28736V136.6272c0-31.02208 25.85088-54.28736 54.28224-54.28736h801.3568c31.0272 0 54.28736 25.85088 54.28736 54.28736V705.3312zM888.13568 926.85824h-194.38592v-19.93728c0-17.43872-12.45696-29.90592-29.9008-29.90592H384.7424c-17.44384 0-29.90592 12.4672-29.90592 29.90592v19.93728H162.94912c-19.93728 0-34.88768 14.95552-34.88768 34.88768 0 19.9424 14.9504 34.88256 34.88768 34.88256h725.18656c19.93728 0 34.88256-14.94528 34.88256-34.88256 0-19.93216-14.9504-34.88768-34.88256-34.88768z" fill="#08cd9e" p-id="59278"></path></svg>